<svg width="1200" height="400" viewBox="0 0 1200 400" xmlns="http://www.w3.org/2000/svg">
  <defs>
    <linearGradient id="grad1" x1="0%" y1="0%" x2="100%" y2="100%">
      <stop offset="0%" style="stop-color:#10b981;stop-opacity:1" />
      <stop offset="100%" style="stop-color:#3b82f6;stop-opacity:1" />
    </linearGradient>
    <filter id="shadow" x="-20%" y="-20%" width="140%" height="140%">
      <feGaussianBlur in="SourceAlpha" stdDeviation="10" />
      <feOffset dx="5" dy="5" result="offsetblur" />
      <feComponentTransfer>
        <feFuncA type="linear" slope="0.3" />
      </feComponentTransfer>
      <feMerge>
        <feMergeNode />
        <feMergeNode in="SourceGraphic" />
      </feMerge>
    </filter>
  </defs>
  <rect width="1200" height="400" fill="url(#grad1)" />
  
  <!-- Background Pattern -->
  <g opacity="0.1">
    <circle cx="100" cy="100" r="50" fill="white" />
    <circle cx="1100" cy="300" r="80" fill="white" />
    <rect x="500" y="-50" width="200" height="200" rx="20" transform="rotate(45 600 50)" fill="white" />
    <rect x="200" y="250" width="100" height="100" rx="10" transform="rotate(20 250 300)" fill="white" />
  </g>

  <!-- Content -->
  <g filter="url(#shadow)">
    <path d="M400 150 L450 150 L450 250 L400 250 Z" fill="white" opacity="0.9" />
    <path d="M460 180 L510 180 L510 250 L460 250 Z" fill="white" opacity="0.7" />
    <path d="M520 120 L570 120 L570 250 L520 250 Z" fill="white" opacity="1" />
    
    <text x="600" y="200" font-family="Arial, sans-serif" font-size="72" font-weight="900" fill="white">HPP PRO</text>
    <text x="600" y="250" font-family="Arial, sans-serif" font-size="24" font-weight="400" fill="white" opacity="0.9">Kalkulator Harga Pokok Produksi Profesional</text>
  </g>
  
  <!-- Icon Symbol -->
  <g transform="translate(250, 150) scale(4)" fill="none" stroke="white" stroke-width="2" stroke-linecap="round" stroke-linejoin="round">
    <path d="M9 7h6m0 10v-3m-3 3h.01M9 17h.01M9 14h.01M12 14h.01M15 11h.01M12 11h.01M9 11h.01M7 21h10a2 2 0 002-2V5a2 2 0 00-2-2H7a2 2 0 00-2 2v14a2 2 0 002 2z"/>
  </g>
</svg>